<svg xmlns="http://www.w3.org/2000/svg" width="209" height="151.722" viewBox="0 0 209 151.722">
  <g id="Group_249" data-name="Group 249" transform="translate(-452.788 -483.523)">
    <ellipse id="Ellipse_19" data-name="Ellipse 19" cx="66" cy="66.5" rx="66" ry="66.5" transform="translate(490.788 490.392)" fill="#6880eb"/>
    <g id="Group_248" data-name="Group 248" transform="translate(478.753 518.343)">
      <g id="Group_245" data-name="Group 245" transform="translate(9.2)">
        <g id="Path_598" data-name="Path 598" transform="translate(98.886 23.798)" fill="#fff">
          <path d="M 22.44985389709473 58.42581939697266 L 0.4498538970947266 46.94755935668945 L 0.4498538970947266 -8.955975532531738 L 22.44985389709473 1.565763235092163 L 22.44985389709473 58.42581939697266 Z" stroke="none"/>
          <path d="M 0.9498538970947266 -8.162609100341797 L 0.9498538970947266 46.64446640014648 L 21.94985389709473 57.60099029541016 L 21.94985389709473 1.880867004394531 L 0.9498538970947266 -8.162609100341797 M -0.05014610290527344 -9.749351501464844 L 22.94985389709473 1.250648498535156 L 22.94985389709473 59.25064849853516 L -0.05014610290527344 47.25064849853516 L -0.05014610290527344 -9.749351501464844 Z" stroke="none" fill="#707070"/>
        </g>
        <g id="Rectangle_175" data-name="Rectangle 175" transform="translate(13.836 14.049)" fill="#fff" stroke="#707070" stroke-width="1">
          <rect width="86" height="57" stroke="none"/>
          <rect x="0.5" y="0.5" width="85" height="56" fill="none"/>
        </g>
        <g id="Rectangle_174" data-name="Rectangle 174" transform="translate(35.836 25.049)" fill="#fff" stroke="#707070" stroke-width="1">
          <rect width="86" height="58" stroke="none"/>
          <rect x="0.5" y="0.5" width="85" height="57" fill="none"/>
        </g>
        <g id="Path_600" data-name="Path 600" transform="translate(101.886 20.45)" fill="#e8ecfd">
          <path d="M 19.77691459655762 5.099191665649414 L 19.0678768157959 5.099191665649414 L -2.153003931045532 -5.51124906539917 L 11.0184440612793 -16.80106163024902 L 33.03216171264648 -5.315643787384033 L 19.77691459655762 5.099191665649414 Z" stroke="none"/>
          <path d="M 11.08703231811523 -16.20131301879883 L -1.255857467651367 -5.621695518493652 L 19.1859188079834 4.599191665649414 L 19.60398483276367 4.599191665649414 L 32.11447143554688 -5.230475902557373 L 11.08703231811523 -16.20131301879883 M 10.94985008239746 -17.40080833435059 L 33.94984817504883 -5.400808334350586 L 19.94984817504883 5.599191665649414 L 18.94984817504883 5.599191665649414 L -3.050149917602539 -5.400808334350586 L 10.94985008239746 -17.40080833435059 Z" stroke="none" fill="#707070"/>
        </g>
        <g id="Path_599" data-name="Path 599" transform="translate(44.495 25.296)" fill="#e8ecfd">
          <path d="M 86.35401916503906 14.25226783752441 L 1.594092011451721 14.25226783752441 L -8.672574996948242 0.2522678375244141 L 76.08734893798828 0.2522678375244141 L 86.35401916503906 14.25226783752441 Z" stroke="none"/>
          <path d="M -7.685882568359375 0.7522678375244141 L 1.847450256347656 13.75226783752441 L 85.36732482910156 13.75226783752441 L 75.83399200439453 0.7522678375244141 L -7.685882568359375 0.7522678375244141 M -9.659278869628906 -0.2477321624755859 L 76.34072113037109 -0.2477321624755859 L 87.34072113037109 14.75226783752441 L 1.340721130371094 14.75226783752441 L -9.659278869628906 -0.2477321624755859 Z" stroke="none" fill="#707070"/>
        </g>
        <g id="Path_602" data-name="Path 602" transform="translate(12.3)" fill="#e8ecfd">
          <path d="M 86.54946136474609 14.5487060546875 L 1.776480793952942 14.5487060546875 L -9.423519134521484 0.5487060546875 L 76.28279113769531 0.5487060546875 L 86.54946136474609 14.5487060546875 Z" stroke="none"/>
          <path d="M 85.56276702880859 14.0487060546875 L 76.02943420410156 1.0487060546875 L -8.383214950561523 1.0487060546875 L 2.01678466796875 14.0487060546875 L 85.56276702880859 14.0487060546875 M 87.53616333007812 15.0487060546875 L 1.536163330078125 15.0487060546875 L -10.46383666992188 0.0487060546875 L 76.53616333007812 0.0487060546875 L 87.53616333007812 15.0487060546875 Z" stroke="none" fill="#707070"/>
        </g>
        <g id="Path_603" data-name="Path 603" transform="translate(13.798 23.798)" fill="#fff">
          <path d="M 22.53779029846191 58.42581939697266 L 0.5377902984619141 46.94755935668945 L 0.5377902984619141 -8.955975532531738 L 22.53779029846191 1.565763235092163 L 22.53779029846191 58.42581939697266 Z" stroke="none"/>
          <path d="M 1.037790298461914 -8.162609100341797 L 1.037790298461914 46.64446640014648 L 22.03779029846191 57.60099029541016 L 22.03779029846191 1.880867004394531 L 1.037790298461914 -8.162609100341797 M 0.03779029846191406 -9.749351501464844 L 23.03779029846191 1.250648498535156 L 23.03779029846191 59.25064849853516 L 0.03779029846191406 47.25064849853516 L 0.03779029846191406 -9.749351501464844 Z" stroke="none" fill="#707070"/>
        </g>
        <g id="Path_604" data-name="Path 604" transform="translate(3 30.798)" fill="#e8ecfd">
          <path d="M 19.76723670959473 5.650899410247803 L -2.246479511260986 -5.834517955780029 L 11.00876522064209 -16.24935340881348 L 11.71780395507812 -16.24935340881348 L 32.93868637084961 -5.638912677764893 L 19.76723670959473 5.650899410247803 Z" stroke="none"/>
          <path d="M 19.69865036010742 5.051152229309082 L 32.04153823852539 -5.52846622467041 L 11.59976387023926 -15.74935340881348 L 11.18169689178467 -15.74935340881348 L -1.328788757324219 -5.919685840606689 L 19.69865036010742 5.051152229309082 M 19.83583450317383 6.250646591186523 L -3.164166450500488 -5.749353408813477 L 10.83583354949951 -16.74935340881348 L 11.83583354949951 -16.74935340881348 L 33.83583450317383 -5.749353408813477 L 19.83583450317383 6.250646591186523 Z" stroke="none" fill="#707070"/>
        </g>
      </g>
      <g id="Group_246" data-name="Group 246" transform="translate(76.287 50.988)">
        <path id="Path_585" data-name="Path 585" d="M392.487,752.947a13.209,13.209,0,0,1,12-8c5.271,0,9.068,3.433,11,8" transform="translate(-392.238 -732.387)" fill="none" stroke="#717171" stroke-miterlimit="10" stroke-width="1" fill-rule="evenodd"/>
        <circle id="Ellipse_21" data-name="Ellipse 21" cx="2.5" cy="2.5" r="2.5" transform="translate(-0.251 0.061)" fill="#717171"/>
        <circle id="Ellipse_22" data-name="Ellipse 22" cx="2.5" cy="2.5" r="2.5" transform="translate(18.749 0.061)" fill="#717171"/>
      </g>
      <g id="Group_38" data-name="Group 38" transform="translate(130.692 45.854)">
        <path id="Path_587" data-name="Path 587" d="M466.344,747.674l1,7-10-12a44.479,44.479,0,0,1-4-7l-1-1a10.528,10.528,0,0,1-1-5v-2h0a86.457,86.457,0,0,0,11,15A44.6,44.6,0,0,1,466.344,747.674Z" transform="translate(-451.5 -727.98)" fill="#fff" stroke="#717171" stroke-miterlimit="10" stroke-width="1"/>
        <g id="Group_37" data-name="Group 37" transform="translate(10.913 17.208)">
          <circle id="Ellipse_23" data-name="Ellipse 23" cx="6.5" cy="6.5" r="6.5" transform="translate(-0.068 0.486)" fill="#e8ecfd" stroke="#717171" stroke-miterlimit="10" stroke-width="1"/>
          <path id="Path_588" data-name="Path 588" d="M466.616,763.543c-.29-4.834,1.134-8.7,7-10,6.746-1.5,9.719,1.281,11,0s4.079-4.921,6-3a4.494,4.494,0,0,1-1,7c-3.452,1.748-4.68,2.119-5,5s-1,10.719-1,12-.719,4.36-2,5a2.047,2.047,0,0,1-1,3,4.112,4.112,0,0,1-3,0s-1.759.522-4-3S466.807,766.739,466.616,763.543Z" transform="translate(-465.684 -750.057)" fill="#fff" stroke="#717171" stroke-miterlimit="10" stroke-width="1"/>
          <path id="Path_589" data-name="Path 589" d="M483.43,774.99s.354,2.256,1,5c.388,1.652.858,4.062,1,5" transform="translate(-469.499 -755.503)" fill="#fff" stroke="#717171" stroke-miterlimit="10" stroke-width="1"/>
          <path id="Path_590" data-name="Path 590" d="M480.01,788.7a4.284,4.284,0,0,0,1-6,30.425,30.425,0,0,0-4-5" transform="translate(-468.079 -756.212)" fill="#fff" stroke="#717171" stroke-miterlimit="10" stroke-width="1"/>
          <path id="Path_591" data-name="Path 591" d="M478.294,758.405s2.8,1.881,3,4c.257,2.718-2,5-2,5" transform="translate(-468.362 -751.919)" fill="#fff" stroke="#717171" stroke-miterlimit="10" stroke-width="1"/>
        </g>
      </g>
      <g id="Group_40" data-name="Group 40" transform="translate(0 44.224)">
        <path id="Path_592" data-name="Path 592" d="M346.443,748.161l-1,7a96.983,96.983,0,0,0,10-13c3.873-6.379,8.245-15.171,7-14s-7.956,9.531-12,14A27,27,0,0,0,346.443,748.161Z" transform="translate(-323.908 -727.837)" fill="#fff" stroke="#717171" stroke-miterlimit="10" stroke-width="1"/>
        <g id="Group_39" data-name="Group 39" transform="translate(0 17.32)">
          <ellipse id="Ellipse_24" data-name="Ellipse 24" cx="6.5" cy="7" rx="6.5" ry="7" transform="translate(13.536 0.004)" fill="#e8ecfd" stroke="#717171" stroke-miterlimit="10" stroke-width="1"/>
          <path id="Path_593" data-name="Path 593" d="M343.3,764.061c.29-4.834-1.134-9.7-7-11-6.746-1.5-9.719,1.281-11,0s-4.079-3.921-6-2a4.494,4.494,0,0,0,1,7c3.451,1.748,4.68,1.119,5,4s1,10.719,1,12-.281,4.36,1,5c0,0-.169,3,2,4,1.431.662,3-1,3-1s1.759.522,4-3S343.107,767.257,343.3,764.061Z" transform="translate(-317.763 -750.057)" fill="#fff" stroke="#717171" stroke-miterlimit="10" stroke-width="1"/>
          <path id="Path_594" data-name="Path 594" d="M333.067,774.508a58.282,58.282,0,0,1-1,6c-.388,1.652-1.858,3.062-2,4" transform="translate(-320.531 -755.503)" fill="#fff" stroke="#717171" stroke-miterlimit="10" stroke-width="1"/>
          <path id="Path_595" data-name="Path 595" d="M335.791,788.216s-3.34-1.332-1-5a30.427,30.427,0,0,1,4-5" transform="translate(-321.255 -756.212)" fill="#fff" stroke="#717171" stroke-miterlimit="10" stroke-width="1"/>
          <path id="Path_596" data-name="Path 596" d="M338,758.923s-2.8.881-3,3a15.887,15.887,0,0,0,1,6" transform="translate(-321.467 -751.919)" fill="#fff" stroke="#717171" stroke-miterlimit="10" stroke-width="1"/>
        </g>
      </g>
    </g>
    <g id="Group_247" data-name="Group 247" transform="translate(581.289 506.57)">
      <g id="Group_41" data-name="Group 41" transform="matrix(0.966, -0.259, 0.259, 0.966, 0, 3.674)">
        <line id="Line_26" data-name="Line 26" y1="6.692" x2="5.934" transform="translate(3.557 3.213)" fill="none" stroke="#fff" stroke-linecap="round" stroke-miterlimit="10" stroke-width="1"/>
        <line id="Line_27" data-name="Line 27" x1="0.12" y1="7.279" transform="translate(0.091 -0.341)" fill="none" stroke="#fff" stroke-linecap="round" stroke-miterlimit="10" stroke-width="1"/>
        <line id="Line_28" data-name="Line 28" y1="0.12" x2="7.279" transform="translate(6.903 12.752)" fill="none" stroke="#fff" stroke-linecap="round" stroke-miterlimit="10" stroke-width="1"/>
      </g>
    </g>
    <circle id="Ellipse_25" data-name="Ellipse 25" cx="3" cy="3" r="3" transform="translate(452.788 541.392)" fill="#717171" opacity="0.1"/>
    <circle id="Ellipse_26" data-name="Ellipse 26" cx="3" cy="3" r="3" transform="translate(626.788 503.392)" fill="#717171" opacity="0.1"/>
    <ellipse id="Ellipse_27" data-name="Ellipse 27" cx="7.5" cy="7" rx="7.5" ry="7" transform="translate(646.288 549.892)" fill="none" stroke="#717171" stroke-miterlimit="10" stroke-width="1" opacity="0.1"/>
    <circle id="Ellipse_28" data-name="Ellipse 28" cx="5" cy="5" r="5" transform="translate(503.288 613.892)" fill="none" stroke="#717171" stroke-miterlimit="10" stroke-width="1" opacity="0.2"/>
    <line id="Line_29" data-name="Line 29" x1="12" y2="11" transform="translate(482.288 483.892)" fill="none" stroke="#717171" stroke-miterlimit="10" stroke-width="1" opacity="0.4"/>
    <line id="Line_30" data-name="Line 30" x1="12" y1="11" transform="translate(482.288 483.892)" fill="none" stroke="#717171" stroke-miterlimit="10" stroke-width="1" opacity="0.4"/>
    <g id="Group_43" data-name="Group 43" transform="translate(585.973 626.43)">
      <line id="Line_31" data-name="Line 31" x1="8" y2="8" transform="translate(0.316 0.461)" fill="none" stroke="#717171" stroke-miterlimit="10" stroke-width="1" opacity="0.4"/>
      <line id="Line_32" data-name="Line 32" x1="8" y1="8" transform="translate(0.316 0.461)" fill="none" stroke="#717171" stroke-miterlimit="10" stroke-width="1" opacity="0.4"/>
    </g>
  </g>
</svg>
