<svg xmlns="http://www.w3.org/2000/svg" width="57.393" height="57.393" viewBox="0 0 57.393 57.393"><path d="M57,20.68q-.229-.756-.5-1.5c0-.014-.01-.028-.015-.042A29.4,29.4,0,0,0,46.636,5.853,29.062,29.062,0,0,0,9.575,7.577a.841.841,0,0,0,1.131,1.244A27.381,27.381,0,0,1,45.624,7.2a27.711,27.711,0,0,1,9.265,12.47,3.039,3.039,0,0,1-.43,2.465c-.592.734-1.77,1.148-3.5,1.23l-.036,0c-.257.013-.514.031-.771.051A8.806,8.806,0,0,0,43.9,16.08L39.18,14.688,36.4,10.628a8.819,8.819,0,0,0-14.549,0l-2.782,4.06L14.344,16.08a8.818,8.818,0,0,0-4.5,13.836l3,3.9-.135,4.92a8.74,8.74,0,0,0,2.49,6.388A8.871,8.871,0,0,0,21.525,47.8h0a8.782,8.782,0,0,0,2.217-.284,29.1,29.1,0,0,0-.379,3.408c0,.011,0,.023,0,.035-.082,1.73-.5,2.907-1.23,3.5a3.041,3.041,0,0,1-2.465.43A27.71,27.71,0,0,1,7.2,45.624a27.378,27.378,0,0,1,.86-34.039.84.84,0,1,0-1.29-1.077,29.059,29.059,0,0,0-.913,36.128,29.4,29.4,0,0,0,13.288,9.851l.042.015q.742.27,1.5.5a9.1,9.1,0,0,0,9.092-2.29l4.382-4.381a.841.841,0,0,0-1.189-1.189l-4.381,4.382a7.445,7.445,0,0,1-5.33,2.187c1.076-.912,1.677-2.47,1.786-4.638,0-.01,0-.02,0-.03a27.439,27.439,0,0,1,26-26l.032,0c2.167-.109,3.725-.71,4.637-1.786a7.445,7.445,0,0,1-2.187,5.33L35.749,46.357a.841.841,0,0,0,1.189,1.189L54.712,29.772A9.11,9.11,0,0,0,57,20.68ZM43.515,24.724A29.15,29.15,0,0,0,26.349,39.511l-4.111,1.462a2.115,2.115,0,0,1-2.823-2.051l.164-5.953a3.809,3.809,0,0,0-.786-2.42l-3.632-4.72A2.115,2.115,0,0,1,16.24,22.51l5.712-1.684a3.81,3.81,0,0,0,2.058-1.5l3.367-4.913a2.115,2.115,0,0,1,3.489,0l3.367,4.913a3.808,3.808,0,0,0,2.058,1.5L42,22.51a2.09,2.09,0,0,1,1.271,1.037A2.155,2.155,0,0,1,43.515,24.724Zm1.678-.484a3.819,3.819,0,0,0-.429-1.474A3.759,3.759,0,0,0,42.48,20.9l-5.713-1.684a2.117,2.117,0,0,1-1.146-.833l-3.367-4.913a3.8,3.8,0,0,0-6.263,0L22.624,18.38a2.12,2.12,0,0,1-1.147.833L15.764,20.9a3.8,3.8,0,0,0-1.935,5.957l3.632,4.72a2.121,2.121,0,0,1,.438,1.348l-.164,5.954A3.8,3.8,0,0,0,22.8,42.557l2.6-.924a29,29,0,0,0-1.273,4l-.207.074a7.133,7.133,0,0,1-2.4.415h0a7.18,7.18,0,0,1-5.116-2.167A7.072,7.072,0,0,1,14.4,38.784l.143-5.219a.841.841,0,0,0-.174-.536l-3.184-4.138a7.137,7.137,0,0,1,3.638-11.2l5.008-1.476a.838.838,0,0,0,.456-.331l2.952-4.306a7.138,7.138,0,0,1,11.775,0l2.952,4.306a.84.84,0,0,0,.456.331l5.008,1.476a7.131,7.131,0,0,1,5.056,5.9A28.991,28.991,0,0,0,45.193,24.239Zm0,0" fill="#224180"/></svg>