<svg id="_003-free-delivery" data-name="003-free-delivery" xmlns="http://www.w3.org/2000/svg" width="57.393" height="55.122" viewBox="0 0 57.393 55.122">
  <path id="Path_18" data-name="Path 18" d="M161.769,464.1c-3.718.974-3.316.885-3.523.885a23.131,23.131,0,0,1,1.251-2.126c.07-.106.14-.21.208-.307Q160.7,463.367,161.769,464.1Zm0,0" transform="translate(-140.507 -410.753)" fill="#224180"/>
  <path id="Path_19" data-name="Path 19" d="M80.909,107.892H77.723V102.7h6.249c.776,0,.807-1.552,0-1.552H76.784c-.388,0-.776.2-.776.613v13.723c0,.792,1.715.793,1.715,0v-6.167h3.186C81.712,109.321,81.687,107.892,80.909,107.892Zm0,0" transform="translate(-67.488 -89.87)" fill="#224180"/>
  <path id="Path_20" data-name="Path 20" d="M175.5,115.243a.559.559,0,0,0-.081-.286l-3.023-5.738c1.716-.347,3.043-1.491,3.043-3.982,0-3.1-2.062-4.084-4.533-4.084h-3.737a.61.61,0,0,0-.613.592v13.723c0,.817,1.715.817,1.715,0v-6h2.349l3.084,5.983c.184.347.429.674.776.674A1.038,1.038,0,0,0,175.5,115.243Zm-7.229-7.209V102.7H170.9c1.7,0,2.818.735,2.818,2.655,0,1.94-1.123,2.675-2.818,2.675Zm0,0" transform="translate(-147.881 -89.87)" fill="#224180"/>
  <path id="Path_21" data-name="Path 21" d="M273.522,114.529h-6.331v-5.208h3.186a.629.629,0,0,0,.592-.694.659.659,0,0,0-.592-.735h-3.186V102.7h6.331c.765,0,.814-1.552,0-1.552h-7.27c-.388,0-.776.2-.776.613v13.7c0,.409.388.613.776.613h7.27C274.336,116.081,274.288,114.529,273.522,114.529Zm0,0" transform="translate(-235.718 -89.87)" fill="#224180"/>
  <path id="Path_22" data-name="Path 22" d="M367.163,102.7c.765,0,.814-1.552,0-1.552h-7.27c-.388,0-.776.2-.776.613v13.7c0,.409.388.613.776.613h7.27c.814,0,.766-1.552,0-1.552h-6.331v-5.208h3.186c.809,0,.766-1.429,0-1.429h-3.186V102.7h6.331Zm0,0" transform="translate(-318.862 -89.87)" fill="#224180"/>
  <path id="Path_31" data-name="Path 31" d="M3.7,39.378a27.006,27.006,0,0,1,39.776-32.8A.841.841,0,0,0,44.4,5.169,28.688,28.688,0,0,0,2.144,40.014.841.841,0,1,0,3.7,39.378Zm0,0" transform="translate(0 -0.5)" fill="#224180"/>
  <path id="Path_32" data-name="Path 32" d="M75.194,59.04a.841.841,0,0,0-1.084,1.286,27,27,0,0,1,4.556,36.389A23.758,23.758,0,0,0,55,96a.841.841,0,0,0,.8,1.482,22.082,22.082,0,0,1,20.942.056c-7.7,2.03-21.673,5.709-29.276,7.718a22.6,22.6,0,0,1,5.6-6.039.841.841,0,0,0-1-1.351,24.3,24.3,0,0,0-6.688,7.615A27.214,27.214,0,0,1,33.131,94.117a.841.841,0,0,0-1.469.82,28.6,28.6,0,0,0,13.76,12.412c.461.193-1.815.656,31.153-8.029,2.626-.708,2.72-.637,2.971-.966A28.678,28.678,0,0,0,75.194,59.04Zm0,0" transform="translate(-28.018 -52.302)" fill="#224180"/>
  <text id="Shipping" transform="translate(4.86 37)" fill="#224180" font-size="10" font-family="Rubik-Medium, Rubik" font-weight="500"><tspan x="0" y="0">SHIPPING</tspan></text>
</svg>
