<svg xmlns="http://www.w3.org/2000/svg" width="53" height="53" viewBox="0 0 53 53"><path d="M91.533,247.067a.883.883,0,0,1-.883-.883,1.767,1.767,0,0,0-1.767-1.767.883.883,0,0,1,0-1.767,1.767,1.767,0,0,0,1.767-1.767.883.883,0,1,1,1.767,0,1.767,1.767,0,0,0,1.767,1.767.883.883,0,0,1,0,1.767,1.767,1.767,0,0,0-1.767,1.767A.883.883,0,0,1,91.533,247.067Zm-.315-3.533a3.321,3.321,0,0,1,.315.315,3.321,3.321,0,0,1,.315-.315,3.321,3.321,0,0,1-.315-.315A3.321,3.321,0,0,1,91.218,243.533Z" transform="translate(-78.283 -213.5)" fill="#224180"/><path d="M52.117,4.417H45.933V.883A.883.883,0,0,0,45.05,0H41.517a.883.883,0,0,0-.883.883V4.417H31.8V.883A.883.883,0,0,0,30.917,0H27.383A.883.883,0,0,0,26.5.883V4.417H17.667V.883A.883.883,0,0,0,16.783,0H13.25a.883.883,0,0,0-.883.883V4.417H6.183A.883.883,0,0,0,5.3,5.3v7.067H.883A.883.883,0,0,0,0,13.25V52.117A.883.883,0,0,0,.883,53H41.517a.883.883,0,0,0,.883-.883V47.7h9.717A.883.883,0,0,0,53,46.817V5.3A.883.883,0,0,0,52.117,4.417ZM42.4,1.767h1.767V7.95H42.4Zm-14.133,0h1.767V7.95H28.267Zm-14.133,0H15.9V7.95H14.133ZM7.067,6.183h5.3v2.65a.883.883,0,0,0,.883.883h3.533a.883.883,0,0,0,.883-.883V6.183H26.5v2.65a.883.883,0,0,0,.883.883h3.533a.883.883,0,0,0,.883-.883V6.183h8.833v2.65a.883.883,0,0,0,.883.883H45.05a.883.883,0,0,0,.883-.883V6.183h5.3v6.183H7.067Zm-5.3,7.95H5.3v6.183H1.767Zm38.867,37.1H1.767V22.083H5.3V46.817a.883.883,0,0,0,.883.883h34.45Zm10.6-5.3H7.067v-31.8H51.233Z" fill="#224180"/><path d="M80.883,167.067H87.95a.883.883,0,0,0,.883-.883v-5.3A.883.883,0,0,0,87.95,160H80.883a.883.883,0,0,0-.883.883v5.3A.883.883,0,0,0,80.883,167.067Zm.883-5.3h5.3V165.3h-5.3Z" transform="translate(-71.167 -142.333)" fill="#224180"/><path d="M176.883,167.067h7.067a.883.883,0,0,0,.883-.883v-5.3a.883.883,0,0,0-.883-.883h-7.067a.883.883,0,0,0-.883.883v5.3A.883.883,0,0,0,176.883,167.067Zm.883-5.3h5.3V165.3h-5.3Z" transform="translate(-156.567 -142.333)" fill="#224180"/><path d="M272.883,167.067h7.067a.883.883,0,0,0,.883-.883v-5.3a.883.883,0,0,0-.883-.883h-7.067a.883.883,0,0,0-.883.883v5.3A.883.883,0,0,0,272.883,167.067Zm.883-5.3h5.3V165.3h-5.3Z" transform="translate(-241.967 -142.333)" fill="#224180"/><path d="M368.883,167.067h7.067a.883.883,0,0,0,.883-.883v-5.3a.883.883,0,0,0-.883-.883h-7.067a.883.883,0,0,0-.883.883v5.3A.883.883,0,0,0,368.883,167.067Zm.883-5.3h5.3V165.3h-5.3Z" transform="translate(-327.367 -142.333)" fill="#224180"/><path d="M176.883,247.067h7.067a.883.883,0,0,0,.883-.883v-5.3a.883.883,0,0,0-.883-.883h-7.067a.883.883,0,0,0-.883.883v5.3A.883.883,0,0,0,176.883,247.067Zm.883-5.3h5.3V245.3h-5.3Z" transform="translate(-156.567 -213.5)" fill="#224180"/><path d="M272.883,247.067h7.067a.883.883,0,0,0,.883-.883v-5.3a.883.883,0,0,0-.883-.883h-7.067a.883.883,0,0,0-.883.883v5.3A.883.883,0,0,0,272.883,247.067Zm.883-5.3h5.3V245.3h-5.3Z" transform="translate(-241.967 -213.5)" fill="#224180"/><path d="M368.883,247.067h7.067a.883.883,0,0,0,.883-.883v-5.3a.883.883,0,0,0-.883-.883h-7.067a.883.883,0,0,0-.883.883v5.3A.883.883,0,0,0,368.883,247.067Zm.883-5.3h5.3V245.3h-5.3Z" transform="translate(-327.367 -213.5)" fill="#224180"/><path d="M80.883,327.067H87.95a.883.883,0,0,0,.883-.883v-5.3A.883.883,0,0,0,87.95,320H80.883a.883.883,0,0,0-.883.883v5.3A.883.883,0,0,0,80.883,327.067Zm.883-5.3h5.3V325.3h-5.3Z" transform="translate(-71.167 -284.667)" fill="#224180"/><path d="M176.883,327.067h7.067a.883.883,0,0,0,.883-.883v-5.3a.883.883,0,0,0-.883-.883h-7.067a.883.883,0,0,0-.883.883v5.3A.883.883,0,0,0,176.883,327.067Zm.883-5.3h5.3V325.3h-5.3Z" transform="translate(-156.567 -284.667)" fill="#224180"/><path d="M272.883,327.067h7.067a.883.883,0,0,0,.883-.883v-5.3a.883.883,0,0,0-.883-.883h-7.067a.883.883,0,0,0-.883.883v5.3A.883.883,0,0,0,272.883,327.067Zm.883-5.3h5.3V325.3h-5.3Z" transform="translate(-241.967 -284.667)" fill="#224180"/><path d="M368.883,327.067h7.067a.883.883,0,0,0,.883-.883v-5.3a.883.883,0,0,0-.883-.883h-7.067a.883.883,0,0,0-.883.883v5.3A.883.883,0,0,0,368.883,327.067Zm.883-5.3h5.3V325.3h-5.3Z" transform="translate(-327.367 -284.667)" fill="#224180"/><path d="M92.417,240.883a.883.883,0,1,0-1.767,0,1.767,1.767,0,0,1-1.767,1.767.883.883,0,0,0,0,1.767,1.767,1.767,0,0,1,1.767,1.767.883.883,0,1,0,1.767,0,1.767,1.767,0,0,1,1.767-1.767.883.883,0,0,0,0-1.767A1.767,1.767,0,0,1,92.417,240.883Zm-.883,2.965a3.321,3.321,0,0,0-.315-.315,3.321,3.321,0,0,0,.315-.315,3.319,3.319,0,0,0,.315.315A3.321,3.321,0,0,0,91.533,243.849Z" transform="translate(-78.283 -213.5)" fill="#224180"/></svg>