<?xml version="1.0" encoding="UTF-8"?>
<svg width="18px" height="18px" viewBox="0 0 18 18" version="1.1" xmlns="http://www.w3.org/2000/svg">
    <g stroke="none" stroke-width="1" fill="none" fill-rule="evenodd">
        <g transform="translate(-65.000000, -55.000000)" fill="#000" fill-rule="nonzero">
            <path d="M66.1482485,55.0004899 C65.6817502,55.0007722 65.2618796,55.283535 65.0862123,55.7157206 C64.9105451,56.1479061 65.0140693,56.6434351 65.3480702,56.9691297 L72.3756747,63.9971591 L65.3480702,71.0248149 C65.0511019,71.3132616 64.932499,71.7393055 65.0377002,72.1397224 C65.1429013,72.5401393 65.4555977,72.8528546 65.8559904,72.9580621 C66.2563831,73.0632696 66.6824012,72.9446596 66.9708305,72.6476734 L73.9980615,65.6196439 L81.025666,72.6476734 C81.3135081,72.9472058 81.7407806,73.0677179 82.1427028,72.9627332 C82.544625,72.8577485 82.8583938,72.5436716 82.9630019,72.1416286 C83.0676101,71.7395856 82.9467118,71.3123984 82.6469325,71.0248149 L75.6197015,63.9971591 L82.6469325,56.9691297 C82.9856789,56.6392089 83.0873037,56.1352303 82.9028861,55.6998032 C82.7184684,55.2643762 82.2857947,54.9867179 81.8131489,55.0004899 C81.5155361,55.0096582 81.2331475,55.1341899 81.025666,55.3477651 L73.9980615,62.375421 L66.9708305,55.3477651 C66.754782,55.1256653 66.4580861,55.000407 66.1482485,55.0004899 Z" id="Path"></path>
        </g>
    </g>
</svg>
